<svg id="Add_Voucher" data-name="Add Voucher" xmlns="http://www.w3.org/2000/svg" xmlns:xlink="http://www.w3.org/1999/xlink" width="20" height="20" viewBox="0 0 20 20">
  <defs>
    <clipPath id="clip-path">
      <path id="Path_112" data-name="Path 112" d="M0,0H20V20H0Z" fill="#db0406"/>
    </clipPath>
  </defs>
  <g id="Mask_Group_101" data-name="Mask Group 101" clip-path="url(#clip-path)">
    <g id="coupon-3-line">
      <path id="Path_29355" data-name="Path 29355" d="M0,0H20V20H0Z" fill="none"/>
      <path id="Path_29356" data-name="Path 29356" d="M1.667,3.333A.833.833,0,0,1,2.5,2.5h15a.833.833,0,0,1,.833.833V7.917a2.083,2.083,0,0,0,0,4.167v4.583a.833.833,0,0,1-.833.833H2.5a.833.833,0,0,1-.833-.833Zm5.071,12.5a1.25,1.25,0,0,1,2.358,0h7.571V13.36a3.75,3.75,0,0,1,0-6.72V4.167H9.1a1.25,1.25,0,0,1-2.358,0h-3.4V15.833ZM7.917,9.167a1.25,1.25,0,1,1,1.25-1.25A1.25,1.25,0,0,1,7.917,9.167Zm0,4.167a1.25,1.25,0,1,1,1.25-1.25A1.25,1.25,0,0,1,7.917,13.333Z" fill="#db0406"/>
    </g>
  </g>
</svg>
