<svg id="Buy_New_Voucher" data-name="Buy New Voucher" xmlns="http://www.w3.org/2000/svg" xmlns:xlink="http://www.w3.org/1999/xlink" width="20" height="20" viewBox="0 0 20 20">
  <defs>
    <clipPath id="clip-path">
      <path id="Path_112" data-name="Path 112" d="M0,0H20V20H0Z" fill="#db0406"/>
    </clipPath>
  </defs>
  <g id="Mask_Group_100" data-name="Mask Group 100" clip-path="url(#clip-path)">
    <g id="coupon-2-line">
      <path id="Path_29353" data-name="Path 29353" d="M0,0H20V20H0Z" fill="none"/>
      <path id="Path_29354" data-name="Path 29354" d="M1.667,7.917V3.333A.833.833,0,0,1,2.5,2.5h15a.833.833,0,0,1,.833.833V7.917a2.083,2.083,0,0,0,0,4.167v4.583a.833.833,0,0,1-.833.833H2.5a.833.833,0,0,1-.833-.833V12.083a2.083,2.083,0,1,0,0-4.167Zm10-3.75H3.333V6.64a3.75,3.75,0,0,1,0,6.72v2.473h8.333Zm1.667,0V15.833h3.333V13.36a3.75,3.75,0,0,1,0-6.72V4.167Z" fill="#db0406"/>
    </g>
  </g>
</svg>
