<svg xmlns="http://www.w3.org/2000/svg" width="24" height="24" viewBox="0 0 24 24">
  <g id="Group_14363" data-name="Group 14363" transform="translate(-85 -138)">
    <rect id="Rectangle_332" data-name="Rectangle 332" width="24" height="24" transform="translate(85 138)" fill="none"/>
    <g id="Page-1" transform="translate(85 138)">
      <g id="Manage-Services" transform="translate(0 0)">
        <path id="Combined-Shape" d="M18.945,5.957a4.361,4.361,0,0,1,1.143,2.93h0v.732a.732.732,0,0,1-.732.732H11.983a.732.732,0,0,1-.732-.732h0V8.887a4.361,4.361,0,0,1,1.143-2.93,4.475,4.475,0,0,0,3.3,1.465A4.368,4.368,0,0,0,18.945,5.957ZM15.694,0a2.979,2.979,0,0,1,0,5.957,3.017,3.017,0,0,1-2.978-2.978A3.017,3.017,0,0,1,15.694,0Z" transform="translate(-0.005)" fill="#db0406"/>
        <path id="Combined-Shape-2" data-name="Combined-Shape" d="M1.327,17.572a1.381,1.381,0,0,1,1.883.659h0l3.583,7.483a1.494,1.494,0,0,1-.634,1.966h0l-.924.477a.691.691,0,0,1-.941-.329h0L.074,19.039a.747.747,0,0,1,.317-.984h0Zm6.041-2.654a4.752,4.752,0,0,1,4.365,1.113c.276.252.451.483.8.483h3.684a1.466,1.466,0,0,1,0,2.93H13.406a.733.733,0,0,0,0,1.465h3.277a1.666,1.666,0,0,0,1.041-.469h0l3.844-4.922a1.362,1.362,0,0,1,1.856-.19,1.517,1.517,0,0,1,.3,2.065h0l-4.125,6.152A4.181,4.181,0,0,1,16.219,25.3H8.168l-4-8.348,1.017-.932.021.018A5.055,5.055,0,0,1,7.368,14.918Z" transform="translate(0 -4.233)" fill="#db0406" fill-rule="evenodd"/>
      </g>
    </g>
  </g>
</svg>
