<svg xmlns="http://www.w3.org/2000/svg" width="24" height="24" viewBox="0 0 24 24">
  <g id="Group_3373" data-name="Group 3373" transform="translate(-85 -138)">
    <rect id="Rectangle_332" data-name="Rectangle 332" width="24" height="24" transform="translate(85 138)" fill="none"/>
    <g id="Page-1" transform="translate(86.667 138.833)">
      <g id="Manage-Location" transform="translate(0 0)">
        <path id="Shape" d="M11.038,0A7.351,7.351,0,0,0,3.75,7.427a7.508,7.508,0,0,0,1.364,4.322l5.366,8.534a.656.656,0,0,0,1.115,0l5.39-8.563a7.492,7.492,0,0,0,1.341-4.293A7.367,7.367,0,0,0,11.038,0Zm0,10.8a3.377,3.377,0,1,1,3.313-3.376A3.349,3.349,0,0,1,11.038,10.8Z" transform="translate(-0.918)" fill="#db0406" fill-rule="evenodd"/>
        <path id="Path" d="M15.394,21.543,12,27.117a2.175,2.175,0,0,1-3.755,0l-3.4-5.574C1.846,22.271,0,23.6,0,25.192c0,2.759,5.214,4.248,10.12,4.248s10.12-1.489,10.12-4.248C20.24,23.6,18.392,22.269,15.394,21.543Z" transform="translate(0 -6.274)" fill="#db0406"/>
      </g>
    </g>
  </g>
</svg>
