<svg xmlns="http://www.w3.org/2000/svg" xmlns:xlink="http://www.w3.org/1999/xlink" width="24" height="24" viewBox="0 0 24 24">
  <defs>
    <clipPath id="clip-path">
      <rect id="Rectangle_2913" data-name="Rectangle 2913" width="24" height="24" fill="#ec1e27"/>
    </clipPath>
  </defs>
  <g id="Vouchers" clip-path="url(#clip-path)">
    <g id="coupon-3-line_1_" data-name="coupon-3-line (1)">
      <path id="Path_29367" data-name="Path 29367" d="M0,0H24V24H0Z" fill="none"/>
      <path id="Path_29368" data-name="Path 29368" d="M2,4A1,1,0,0,1,3,3H21a1,1,0,0,1,1,1V9.5a2.5,2.5,0,0,0,0,5V20a1,1,0,0,1-1,1H3a1,1,0,0,1-1-1ZM8.085,19a1.5,1.5,0,0,1,2.83,0H20V16.032a4.5,4.5,0,0,1,0-8.064V5H10.915a1.5,1.5,0,0,1-2.83,0H4V19ZM9.5,11A1.5,1.5,0,1,1,11,9.5,1.5,1.5,0,0,1,9.5,11Zm0,5A1.5,1.5,0,1,1,11,14.5,1.5,1.5,0,0,1,9.5,16Z" fill="#ec1e27"/>
    </g>
  </g>
</svg>
