<svg xmlns="http://www.w3.org/2000/svg" xmlns:xlink="http://www.w3.org/1999/xlink" width="20" height="20" viewBox="0 0 20 20">
  <defs>
    <clipPath id="clip-path">
      <rect id="Rectangle_13" data-name="Rectangle 13" width="20" height="20" transform="translate(3912 216)" fill="#ec1e27"/>
    </clipPath>
  </defs>
  <g id="addresses" transform="translate(-3912 -216)" clip-path="url(#clip-path)">
    <g id="map-pin-line" transform="translate(3912 216)">
      <path id="Path_35" data-name="Path 35" d="M0,0H20V20H0Z" fill="none"/>
      <path id="Path_36" data-name="Path 36" d="M10,17.417l4.125-4.125a5.833,5.833,0,1,0-8.25,0Zm0,2.357-5.3-5.3a7.5,7.5,0,1,1,10.607,0Zm0-8.94A1.667,1.667,0,1,0,8.333,9.167,1.667,1.667,0,0,0,10,10.833ZM10,12.5a3.333,3.333,0,1,1,3.333-3.333A3.333,3.333,0,0,1,10,12.5Z" fill="#ec1e27"/>
    </g>
  </g>
</svg>
