<svg width="13" height="17" viewBox="0 0 13 17" fill="none" xmlns="http://www.w3.org/2000/svg">
<path d="M12.0088 6.05841C12.0003 7.24014 11.7533 8.40799 11.2826 9.49198C10.5103 11.2666 9.52618 12.9413 8.35176 14.4797C7.79647 15.2387 7.20833 15.978 6.58733 16.6877C6.2259 17.1017 5.87433 17.105 5.5129 16.6877C3.81288 14.7669 2.36327 12.6383 1.19876 10.3528C0.680671 9.35788 0.329887 8.28444 0.160475 7.17555C-0.000735976 6.19662 0.0905898 5.19273 0.425805 4.25896C0.761019 3.32519 1.32903 2.49244 2.07605 1.83955C2.65666 1.30289 3.341 0.890777 4.0869 0.628581C4.8328 0.366385 5.62448 0.25966 6.41319 0.314977C7.69297 0.39862 8.91216 0.890599 9.89157 1.7186C10.871 2.5466 11.5589 3.66695 11.8543 4.91498C11.942 5.29035 11.9937 5.67322 12.0088 6.05841ZM6.05176 1.50112C5.19993 1.50445 4.36385 1.73103 3.6269 2.15826C2.8141 2.64075 2.16342 3.3544 1.75788 4.20821C1.35234 5.06201 1.21031 6.01726 1.3499 6.95212C1.49891 7.81228 1.76189 8.64874 2.1319 9.4394C3.11289 11.5519 4.38717 13.5153 5.91705 15.2715C6.03862 15.4095 6.0879 15.38 6.18976 15.2715C6.89166 14.4607 7.5424 13.607 8.13819 12.7153C9.10749 11.3237 9.88136 9.80581 10.4382 8.20398C10.7322 7.39843 10.8444 6.53783 10.7668 5.68383C10.6231 4.53286 10.0653 3.47355 9.1976 2.70382C8.3299 1.93408 7.21166 1.50656 6.05176 1.50112Z" fill="#696666"/>
<path d="M8.43029 6.27544C8.42899 6.74644 8.2881 7.20648 8.02541 7.59743C7.76272 7.98837 7.39004 8.29267 6.95445 8.47187C6.51887 8.65106 6.03994 8.69711 5.57819 8.60419C5.11645 8.51126 4.69261 8.28354 4.36025 7.9498C4.02789 7.61607 3.80193 7.19129 3.71091 6.72917C3.6199 6.26704 3.66793 5.78831 3.84892 5.35347C4.02991 4.91863 4.33575 4.5472 4.72778 4.28614C5.11981 4.02507 5.58043 3.88607 6.05144 3.88672C6.36466 3.88672 6.67481 3.94857 6.96407 4.06874C7.25333 4.1889 7.51601 4.36501 7.73704 4.58695C7.95806 4.8089 8.13308 5.0723 8.25205 5.36206C8.37102 5.65181 8.43159 5.96221 8.43029 6.27544ZM7.24086 6.27544C7.24282 6.03899 7.17445 5.8073 7.04444 5.60979C6.91443 5.41229 6.72865 5.25788 6.51069 5.16619C6.29274 5.0745 6.05245 5.04966 5.82035 5.09483C5.58825 5.14 5.37482 5.25314 5.20715 5.41987C5.03949 5.58661 4.92518 5.79941 4.87872 6.03126C4.83227 6.26311 4.85577 6.50353 4.94626 6.72199C5.03674 6.94045 5.19011 7.12708 5.38689 7.25818C5.58367 7.38928 5.81498 7.45894 6.05144 7.45829C6.36467 7.4566 6.66474 7.33209 6.88715 7.11152C7.10956 6.89095 7.23657 6.59193 7.24086 6.27872V6.27544Z" fill="#696666"/>
</svg>
