<svg id="Layer_1" data-name="Layer 1" xmlns="http://www.w3.org/2000/svg" viewBox="0 0 200 200"><defs><style>.cls-1{fill:#7e8f99;}</style></defs><path class="cls-1" d="M80,37.49a20.67,20.67,0,0,0,2.74-1.91,24.06,24.06,0,0,1,32.91,6.34A23.8,23.8,0,0,1,120,55.67q.42,36,.84,72c.11,11.61-11,19.68-21.7,15.77-6.3-2.28-9.78-7-10.45-13.69-.23-2.3-.14-4.63-.16-6.94q-.36-28.81-.7-57.63a10.92,10.92,0,0,0-.2-1.2c2.73,0,5.22,0,7.72,0,.45,0,.57.16.56.57,0,.81,0,1.62,0,2.43q.36,30.4.72,60.82c0,3.54,1.41,6.24,4.67,7.82a8.11,8.11,0,0,0,11.35-6.27,13,13,0,0,0,.1-1.87q-.41-35.64-.83-71.29c-.1-8.14-5-14.31-12.57-16-9.62-2.18-19.43,5.23-19.62,15.09-.15,8.15.11,16.31.2,24.46q.28,24.24.56,48.48a26,26,0,0,0,2.8,11.65,24.11,24.11,0,0,0,38.8,5.08,24.48,24.48,0,0,0,6.81-17.92q-.49-39.23-.94-78.45c0-1.44,0-1.44,1.41-1.47,1.84,0,3.68,0,5.51-.14.91-.06,1.15.16,1.16,1.1q.24,24.9.57,49.8c.12,9.88.17,19.76.39,29.64a29.39,29.39,0,0,1-1.53,10c-3.95,11.9-12,19.57-24.29,22.33-10,2.26-19.2-.07-27.24-6.59a7.36,7.36,0,0,1-1.14-1,9.27,9.27,0,0,0-1.7-1.48l-.79-.76a30,30,0,0,1-4.81-7,41.92,41.92,0,0,1-2.68-7.89c-.93-3.48-.61-7-.65-10.49-.08-7.74-.36-15.49-.36-23.23,0-10-.37-19.89-.35-29.83,0-5-.16-10.06-.14-15.08a25,25,0,0,1,3.59-13c.51-.84,1.29-1.48,1.78-2.34l2.61-2.69a.28.28,0,0,0,.3-.32Z"/></svg>