<svg width="34" height="34" viewBox="0 0 34 34" fill="none" xmlns="http://www.w3.org/2000/svg">
<circle cx="17" cy="17" r="17" fill="#F4F4F4"/>
<path d="M22.275 10.1699H11.421C10.6437 10.1699 9.89826 10.4787 9.34863 11.0283C8.79901 11.5779 8.49023 12.3234 8.49023 13.1007V19.7943C8.49267 20.5708 8.80223 21.3148 9.35133 21.8639C9.90042 22.413 10.6445 22.7226 11.421 22.725H18.3272L21.637 26.0441C21.6905 26.1004 21.7551 26.1451 21.8267 26.1754C21.8983 26.2056 21.9754 26.2207 22.0531 26.2197C22.1293 26.2188 22.2047 26.2031 22.275 26.1735C22.3813 26.1297 22.4722 26.0554 22.5364 25.96C22.6006 25.8646 22.6351 25.7523 22.6355 25.6373V22.6973C23.3423 22.6074 23.9922 22.2631 24.4635 21.7288C24.9348 21.1945 25.1954 20.5068 25.1965 19.7943V13.1007C25.1965 12.325 24.889 11.5809 24.3413 11.0316C23.7937 10.4822 23.0506 10.1724 22.275 10.1699ZM24.0316 19.7943C24.0291 20.2594 23.8433 20.7048 23.5144 21.0337C23.1855 21.3626 22.7401 21.5484 22.275 21.5509H22.0531C21.8986 21.5509 21.7504 21.6122 21.6412 21.7215C21.532 21.8307 21.4706 21.9788 21.4706 22.1333V24.195L18.9929 21.708C18.8798 21.6026 18.7314 21.5432 18.5768 21.5416H11.421C10.9551 21.5416 10.5083 21.3566 10.1789 21.0271C9.84946 20.6977 9.66438 20.2509 9.66438 19.785V13.1007C9.66438 12.6348 9.84946 12.188 10.1789 11.8586C10.5083 11.5291 10.9551 11.3441 11.421 11.3441H22.275C22.7401 11.3465 23.1855 11.5324 23.5144 11.8613C23.8433 12.1902 24.0291 12.6355 24.0316 13.1007V19.7943Z" fill="#A7A7A7"/>
<path d="M21.1565 14.3213H12.5307C12.3762 14.3213 12.2281 14.3827 12.1188 14.4919C12.0096 14.6011 11.9482 14.7493 11.9482 14.9037C11.9482 15.0591 12.0093 15.2082 12.1183 15.3189C12.2272 15.4296 12.3754 15.493 12.5307 15.4954H21.1565C21.3058 15.4959 21.4497 15.4399 21.5594 15.3388C21.6691 15.2376 21.7366 15.0988 21.7482 14.95C21.7533 14.8692 21.7417 14.7883 21.7143 14.7122C21.6868 14.6361 21.644 14.5664 21.5886 14.5075C21.5331 14.4485 21.4662 14.4016 21.3919 14.3696C21.3175 14.3376 21.2375 14.3211 21.1565 14.3213Z" fill="#A7A7A7"/>
<path d="M21.1565 17.6035H12.5307C12.3762 17.6035 12.2281 17.6649 12.1188 17.7741C12.0096 17.8833 11.9482 18.0315 11.9482 18.186C11.9482 18.3404 12.0096 18.4886 12.1188 18.5978C12.2281 18.7071 12.3762 18.7684 12.5307 18.7684H21.1565C21.311 18.7684 21.4592 18.7071 21.5684 18.5978C21.6776 18.4886 21.739 18.3404 21.739 18.186C21.739 18.0315 21.6776 17.8833 21.5684 17.7741C21.4592 17.6649 21.311 17.6035 21.1565 17.6035Z" fill="#A7A7A7"/>
</svg>
