<svg width="42" height="42" viewBox="0 0 42 42" fill="none" xmlns="http://www.w3.org/2000/svg">
<path d="M21 41C32.0457 41 41 32.0457 41 21C41 9.95431 32.0457 1 21 1C9.95431 1 1 9.95431 1 21C1 32.0457 9.95431 41 21 41Z" fill="#DC0000" stroke="white" stroke-width="2" stroke-miterlimit="10"/>
<path d="M28.8778 24.6117V27.1696C28.8787 27.6212 28.7133 28.0548 28.4177 28.3752C28.122 28.6956 27.7204 28.8768 27.3009 28.8789H27.1535C24.7185 28.5928 22.3793 27.6979 20.3229 26.2654C18.4047 24.9564 16.7782 23.2083 15.5591 21.1456C14.2221 18.9219 13.3892 16.3911 13.1275 13.7573C13.1088 13.5344 13.1311 13.3096 13.1933 13.0959C13.2554 12.8823 13.3561 12.6839 13.4896 12.5122C13.6231 12.3406 13.7867 12.1989 13.9711 12.0954C14.1556 11.992 14.3572 11.9287 14.5644 11.9093H14.7044H17.0881C17.4726 11.9052 17.8454 12.0519 18.1369 12.3218C18.4284 12.5918 18.6187 12.9667 18.6723 13.3766C18.774 14.1894 18.9593 14.9874 19.225 15.7561C19.33 16.062 19.3511 16.394 19.2858 16.7126C19.2205 17.0311 19.0715 17.3227 18.8566 17.5526L17.8507 18.6352C18.9811 20.7717 20.6271 22.5393 22.6145 23.7511L23.6203 22.6684C23.8339 22.4371 24.1048 22.2767 24.4007 22.2064C24.6966 22.1361 25.005 22.1588 25.2893 22.2719C26.0033 22.558 26.7447 22.7575 27.4998 22.8667C27.8901 22.9208 28.2476 23.1296 28.5024 23.4523C28.7572 23.775 28.8911 24.1884 28.8778 24.6117V24.6117Z" stroke="white" stroke-width="1.5" stroke-linecap="round" stroke-linejoin="round"/>
</svg>
