<svg width="33" height="33" viewBox="0 0 33 33" fill="none" xmlns="http://www.w3.org/2000/svg">
<circle cx="16.5" cy="16.5" r="16.5" fill="white"/>
<path d="M10.9469 21.635L12.279 22.8548C12.3193 22.893 12.349 22.941 12.3651 22.9941C12.3813 23.0472 12.3834 23.1036 12.3713 23.1578C12.3592 23.212 12.3332 23.2621 12.2959 23.3032C12.2587 23.3443 12.2114 23.3751 12.1587 23.3925L10.3932 23.9543C10.3419 23.9697 10.2876 23.9715 10.2355 23.9593C10.1834 23.9471 10.1354 23.9214 10.0964 23.8848C10.0574 23.8482 10.0286 23.802 10.0131 23.7508C9.99759 23.6996 9.99582 23.6452 10.008 23.5931L10.4172 21.7955C10.4304 21.7412 10.4575 21.6912 10.4959 21.6506C10.5343 21.6099 10.5826 21.58 10.6361 21.5638C10.6897 21.5476 10.7465 21.5456 10.801 21.5581C10.8555 21.5706 10.9058 21.5971 10.9469 21.635Z" fill="#A7A7A7"/>
<path d="M19.8322 10.9372L11.2695 20.6314L13.2437 22.4932L21.8304 12.7429C21.9039 12.6678 21.9451 12.567 21.9451 12.462C21.9451 12.357 21.9039 12.2561 21.8304 12.1811L20.402 10.9372C20.3647 10.8996 20.3203 10.8698 20.2714 10.8494C20.2225 10.829 20.1701 10.8185 20.1171 10.8185C20.0641 10.8185 20.0117 10.829 19.9628 10.8494C19.9139 10.8698 19.8695 10.8996 19.8322 10.9372Z" fill="#A7A7A7"/>
<path d="M20.6166 10.3918L22.3981 12.053C22.6228 12.2777 23.0481 10.9857 22.358 10.3357C21.6678 9.68563 20.3437 10.135 20.6166 10.3918Z" fill="#A7A7A7"/>
</svg>
