<svg xmlns="http://www.w3.org/2000/svg" width="24.729" height="24.729" viewBox="0 0 24.729 24.729">
  <path id="Path_69" data-name="Path 69" d="M571.455,3230.718l-.65-3.538,4.555-1.974v5.74H571.5Zm-.776-4.23-.728-3.947,5.409-2.347v4.26Zm-.855-4.639-.7-3.809,6.234-2.707v4.115Zm-.824-4.5-.806-4.386-.036-.192.168-.1,6.625-3.82.409-.235v5.974Zm17.136-2.551,6.751,1.595-.271,1.738-7.178,3.556Zm6.353,4.146-.451,2.93-6.961,3.345.277-2.744Zm-.571,3.736-.47,3.039-6.732,3.032L585,3226Zm-.6,3.839-.68,4.428h-6.149l.145-1.414Zm-15.312-20.271-.019,9.374,9.645-.992.416-4.158Zm-.019,10.048-.005,2.431,9.332-.86.252-2.557Zm-.012,3.1v2.527l9-.68.264-2.7Zm-.006,3.207-.018,8.369h8.057l.9-9.037Z" transform="translate(-568.158 -3206.247)" fill="#0073db" fill-rule="evenodd"/>
</svg>
