<svg width="48" height="48" viewBox="0 0 48 48" fill="none" xmlns="http://www.w3.org/2000/svg">
<path d="M23.6672 0H23.6513C10.589 0 0 10.589 0 23.6513V23.6672C0 36.7294 10.589 47.3184 23.6513 47.3184H23.6672C36.7294 47.3184 47.3184 36.7294 47.3184 23.6672V23.6513C47.3184 10.589 36.7294 0 23.6672 0Z" fill="#EC1E27"/>
<path d="M20.049 37.6875H25.8024V23.3438H29.8187L30.249 18.5625H25.8024V15.6459C25.8024 14.4984 26.0415 14.0522 27.1412 14.0522H30.249V9H26.2646C21.9774 9 20.049 10.8806 20.049 14.4984V18.3394H17.0527V23.3438H20.049V37.6875Z" fill="white"/>
</svg>
