<?xml version="1.0" standalone="no"?>
<!DOCTYPE svg PUBLIC "-//W3C//DTD SVG 20010904//EN"
 "http://www.w3.org/TR/2001/REC-SVG-20010904/DTD/svg10.dtd">
<svg version="1.0" xmlns="http://www.w3.org/2000/svg"
 width="156.000000pt" height="156.000000pt" viewBox="0 0 156.000000 156.000000"
 preserveAspectRatio="xMidYMid meet">

<g transform="translate(0.000000,156.000000) scale(0.100000,-0.100000)"
fill="#000000" stroke="none">
<path d="M711 1446 c-43 -32 -48 -39 -248 -386 -468 -810 -446 -771 -451 -830
-5 -65 17 -101 75 -125 53 -22 1333 -22 1386 0 58 24 80 60 75 125 -4 49 -19
81 -142 295 -344 597 -481 833 -508 872 -51 75 -125 94 -187 49z m149 -365
c16 -16 32 -40 36 -55 3 -15 -3 -84 -14 -154 -12 -70 -26 -167 -33 -215 l-12
-88 -56 3 -56 3 -8 60 c-4 33 -19 129 -33 213 -21 125 -23 159 -14 187 17 51
53 75 112 75 41 0 54 -5 78 -29z m-35 -585 c39 -16 75 -68 75 -106 0 -56 -65
-120 -122 -120 -54 0 -118 66 -118 123 0 37 41 91 80 104 45 15 45 15 85 -1z"/>
</g>
</svg>
