<svg width="15" height="13" viewBox="0 0 15 13" fill="none" xmlns="http://www.w3.org/2000/svg">
<path d="M13.2411 12.8756H2.08291C1.63901 12.8756 1.21329 12.6992 0.899403 12.3853C0.585518 12.0715 0.40918 11.6457 0.40918 11.2018V2.27529C0.40918 1.83139 0.585518 1.40567 0.899403 1.09179C1.21329 0.777901 1.63901 0.601563 2.08291 0.601562H13.2411C13.685 0.601562 14.1107 0.777901 14.4246 1.09179C14.7385 1.40567 14.9148 1.83139 14.9148 2.27529V11.2018C14.9148 11.6457 14.7385 12.0715 14.4246 12.3853C14.1107 12.6992 13.685 12.8756 13.2411 12.8756ZM2.08291 1.71738C1.93494 1.71738 1.79303 1.77616 1.68841 1.88079C1.58378 1.98542 1.525 2.12732 1.525 2.27529V11.2018C1.525 11.3498 1.58378 11.4917 1.68841 11.5963C1.79303 11.701 1.93494 11.7597 2.08291 11.7597H13.2411C13.3891 11.7597 13.531 11.701 13.6356 11.5963C13.7402 11.4917 13.799 11.3498 13.799 11.2018V2.27529C13.799 2.12732 13.7402 1.98542 13.6356 1.88079C13.531 1.77616 13.3891 1.71738 13.2411 1.71738H2.08291Z" fill="#EC1E27"/>
<path d="M10.4511 6.18339C10.12 6.18339 9.79644 6.08523 9.5212 5.90132C9.24596 5.71741 9.03143 5.45601 8.90475 5.15017C8.77807 4.84434 8.74492 4.50781 8.8095 4.18314C8.87409 3.85847 9.03349 3.56024 9.26757 3.32616C9.50164 3.09209 9.79987 2.93268 10.1245 2.8681C10.4492 2.80352 10.7857 2.83666 11.0916 2.96334C11.3974 3.09002 11.6588 3.30455 11.8427 3.57979C12.0266 3.85504 12.1248 4.17863 12.1248 4.50967C12.1248 4.95357 11.9485 5.37929 11.6346 5.69317C11.3207 6.00705 10.895 6.18339 10.4511 6.18339ZM10.4511 3.95176C10.3407 3.95176 10.2329 3.98448 10.1411 4.04578C10.0494 4.10709 9.97786 4.19422 9.93563 4.29616C9.8934 4.39811 9.88236 4.51028 9.90388 4.61851C9.92541 4.72673 9.97855 4.82614 10.0566 4.90417C10.1346 4.98219 10.234 5.03533 10.3422 5.05685C10.4505 5.07838 10.5626 5.06733 10.6646 5.02511C10.7665 4.98288 10.8537 4.91137 10.915 4.81962C10.9763 4.72788 11.009 4.62001 11.009 4.50967C11.009 4.3617 10.9502 4.21979 10.8456 4.11516C10.7409 4.01054 10.599 3.95176 10.4511 3.95176Z" fill="#EC1E27"/>
<path d="M13.2397 12.8761C13.1478 12.8757 13.0574 12.8525 12.9766 12.8087C12.8959 12.7649 12.8271 12.7018 12.7766 12.6251L10.3553 8.99868C10.3042 8.92273 10.2353 8.86051 10.1546 8.81748C10.0738 8.77445 9.98372 8.75195 9.89222 8.75195C9.80072 8.75195 9.71062 8.77445 9.62987 8.81748C9.54912 8.86051 9.48019 8.92273 9.42915 8.99868L9.23947 9.27763C9.15226 9.38589 9.02779 9.45769 8.89042 9.47898C8.75305 9.50027 8.61268 9.46951 8.4968 9.39272C8.38093 9.31594 8.29789 9.19866 8.26395 9.06385C8.23002 8.92905 8.24763 8.78643 8.31334 8.66393L8.49745 8.3794C8.65012 8.14923 8.85738 7.96043 9.10075 7.82982C9.34412 7.69921 9.61602 7.63086 9.89222 7.63086C10.1684 7.63086 10.4403 7.69921 10.6837 7.82982C10.9271 7.96043 11.1343 8.14923 11.287 8.3794L13.7027 12.0114C13.7835 12.1344 13.8124 12.2843 13.7831 12.4285C13.7539 12.5727 13.6688 12.6995 13.5465 12.7813C13.4567 12.8442 13.3494 12.8774 13.2397 12.8761Z" fill="#EC1E27"/>
<path d="M2.08222 12.8773C1.97532 12.877 1.87075 12.8461 1.78095 12.7881C1.65682 12.708 1.5695 12.582 1.53813 12.4377C1.50675 12.2934 1.53388 12.1425 1.61358 12.0181L5.08935 6.65105C5.2402 6.41796 5.44667 6.22606 5.69015 6.09263C5.93363 5.9592 6.20648 5.88844 6.48413 5.88672C6.76024 5.88662 7.03209 5.95482 7.27545 6.08526C7.51881 6.2157 7.72611 6.40433 7.8789 6.63432L11.4607 12.0126C11.5264 12.1351 11.544 12.2777 11.5101 12.4125C11.4761 12.5473 11.3931 12.6646 11.2772 12.7414C11.1613 12.8181 11.021 12.8489 10.8836 12.8276C10.7462 12.8063 10.6217 12.7345 10.5345 12.6263L6.94719 7.2536C6.89665 7.17685 6.82794 7.11378 6.74715 7.06998C6.66637 7.02618 6.57602 7.00301 6.48413 7.00254C6.39172 7.00362 6.30104 7.02764 6.22021 7.07243C6.13939 7.11723 6.07095 7.18139 6.02106 7.25918L2.55087 12.6207C2.50046 12.6993 2.43114 12.7639 2.34926 12.8088C2.26739 12.8536 2.17557 12.8772 2.08222 12.8773Z" fill="#EC1E27"/>
</svg>
