<svg width="48" height="48" viewBox="0 0 48 48" fill="none" xmlns="http://www.w3.org/2000/svg">
<path d="M23.6513 47.3184C17.3786 47.3184 11.3628 44.8266 6.9273 40.3911C2.49183 35.9557 5.37027e-06 29.9399 5.37027e-06 23.6672C-0.00208848 20.5599 0.608124 17.4827 1.79577 14.6114C2.98342 11.74 4.72523 9.13083 6.92166 6.93292C9.11809 4.73501 11.7261 2.99145 14.5966 1.80187C17.4672 0.612285 20.544 -7.05473e-07 23.6513 0C26.7585 -7.05473e-07 29.8353 0.612285 32.7059 1.80187C35.5764 2.99145 38.1844 4.73501 40.3809 6.93292C42.5773 9.13083 44.3191 11.74 45.5067 14.6114C46.6944 17.4827 47.3046 20.5599 47.3025 23.6672C47.3025 29.9399 44.8107 35.9557 40.3752 40.3911C35.9397 44.8266 29.924 47.3184 23.6513 47.3184Z" fill="#EC1E27"/>
<path d="M23.6522 13.3587C27.1106 13.3587 27.525 13.3587 28.8956 13.3587C29.7169 13.374 30.53 13.5247 31.3022 13.805C31.8645 14.0199 32.375 14.3512 32.8003 14.7772C33.2269 15.1989 33.5537 15.7108 33.7566 16.2753C34.0563 17.042 34.2077 17.8587 34.2028 18.6819C34.2028 20.0525 34.2825 20.4509 34.2825 23.9253C34.2825 27.3997 34.2825 27.7981 34.2028 29.1687C34.2222 30.0398 34.0706 30.9061 33.7566 31.7187C33.5571 32.2803 33.2297 32.7877 32.8003 33.2009C32.3792 33.6321 31.8675 33.9642 31.3022 34.1731C30.5323 34.4615 29.7177 34.6125 28.8956 34.6194C27.525 34.6194 27.1106 34.6194 23.6522 34.6194C20.1937 34.6194 19.7794 34.6194 18.4088 34.6194C17.5866 34.6125 16.7721 34.4615 16.0022 34.1731C15.4369 33.9642 14.9252 33.6321 14.5041 33.2009C14.0746 32.7877 13.7473 32.2803 13.5478 31.7187C13.2517 30.951 13.1004 30.135 13.1016 29.3122C13.1016 27.9416 13.0219 27.5272 13.0219 24.0688C13.0219 20.6103 13.0219 20.1959 13.1016 18.8253C13.0966 18.0021 13.2481 17.1855 13.5478 16.4187C13.7507 15.8542 14.0774 15.3423 14.5041 14.9206C14.9294 14.4946 15.4399 14.1633 16.0022 13.9484C16.7743 13.6682 17.5875 13.5174 18.4088 13.5022C19.7794 13.5022 20.1937 13.5022 23.6522 13.5022V13.3587ZM23.6522 11C20.13 11 19.6838 11 18.2972 11.0797C17.209 11.095 16.1313 11.2943 15.1097 11.6694C14.2465 12.0042 13.4631 12.5162 12.8098 13.1722C12.1565 13.8283 11.6478 14.6139 11.3166 15.4784C10.9318 16.4979 10.7269 17.5764 10.7109 18.6659C10.7109 20.0525 10.7109 20.4987 10.7109 24.0209C10.7109 27.5431 10.7109 27.9734 10.7109 29.36C10.7298 30.4492 10.9346 31.5273 11.3166 32.5475C11.6409 33.4135 12.1524 34.1971 12.8147 34.8425C13.462 35.5024 14.2451 36.0135 15.1097 36.3406C16.1299 36.7226 17.2079 36.9274 18.2972 36.9462C19.6838 36.9462 20.13 37.0259 23.6522 37.0259C27.1744 37.0259 27.6206 37.0259 29.0072 36.9462C30.0964 36.9274 31.1744 36.7226 32.1947 36.3406C33.0593 36.0135 33.8423 35.5024 34.4897 34.8425C35.152 34.1971 35.6635 33.4135 35.9878 32.5475C36.3698 31.5273 36.5746 30.4492 36.5934 29.36C36.5934 27.9734 36.6731 27.5431 36.6731 24.0209C36.6731 20.4987 36.6731 20.0525 36.5934 18.6659C36.5775 17.5764 36.3725 16.4979 35.9878 15.4784C35.6566 14.6139 35.1479 13.8283 34.4946 13.1722C33.8413 12.5162 33.0579 12.0042 32.1947 11.6694C31.1731 11.2943 30.0954 11.095 29.0072 11.0797C27.6206 11 27.1744 11 23.6522 11Z" fill="white"/>
<path d="M23.6521 17C22.3345 17 21.0465 17.3907 19.951 18.1227C18.8554 18.8547 18.0016 19.8952 17.4973 21.1125C16.9931 22.3298 16.8612 23.6693 17.1182 24.9615C17.3753 26.2538 18.0098 27.4408 18.9415 28.3725C19.8731 29.3042 21.0602 29.9387 22.3524 30.1957C23.6447 30.4528 24.9842 30.3209 26.2015 29.8166C27.4188 29.3124 28.4592 28.4586 29.1913 27.363C29.9233 26.2675 30.314 24.9795 30.314 23.6619C30.314 21.895 29.6121 20.2006 28.3628 18.9512C27.1134 17.7019 25.419 17 23.6521 17ZM23.6521 27.9809C22.7934 27.9841 21.9531 27.7321 21.2377 27.257C20.5224 26.7819 19.9643 26.105 19.6342 25.3122C19.3042 24.5195 19.217 23.6465 19.3837 22.8042C19.5505 21.9618 19.9637 21.1879 20.5709 20.5807C21.1781 19.9734 21.952 19.5602 22.7944 19.3935C23.6368 19.2267 24.5097 19.3139 25.3025 19.644C26.0952 19.9741 26.7721 20.5322 27.2472 21.2475C27.7224 21.9628 27.9743 22.8031 27.9712 23.6619C27.9628 24.8018 27.504 25.8922 26.6949 26.6953C25.8859 27.4984 24.7921 27.9491 23.6521 27.9491" fill="white"/>
<path d="M32.1301 17.2396C32.1833 17.473 32.1832 17.7154 32.1299 17.9488C32.0766 18.1821 31.9713 18.4005 31.8221 18.5876C31.6728 18.7748 31.4832 18.9259 31.2676 19.0297C31.0519 19.1336 30.8156 19.1875 30.5762 19.1875C30.3368 19.1875 30.1005 19.1336 29.8848 19.0297C29.6691 18.9259 29.4796 18.7748 29.3303 18.5876C29.181 18.4005 29.0758 18.1821 29.0225 17.9488C28.9691 17.7154 28.9691 17.473 29.0223 17.2396C29.1025 16.8875 29.3 16.5731 29.5823 16.3479C29.8646 16.1227 30.215 16 30.5762 16C30.9373 16 31.2877 16.1227 31.5701 16.3479C31.8524 16.5731 32.0498 16.8875 32.1301 17.2396Z" fill="white"/>
</svg>
