<svg width="48" height="48" viewBox="0 0 48 48" fill="none" xmlns="http://www.w3.org/2000/svg">
<path d="M23.6513 47.3025C20.5447 47.3046 17.4683 46.6943 14.5978 45.5064C11.7274 44.3186 9.11926 42.5765 6.92262 40.3799C4.72598 38.1833 2.98393 35.5751 1.79608 32.7047C0.608237 29.8342 -0.00209008 26.7578 5.37752e-06 23.6513C-0.00209008 20.5447 0.608237 17.4683 1.79608 14.5978C2.98393 11.7274 4.72598 9.11926 6.92262 6.92262C9.11926 4.72598 11.7274 2.98393 14.5978 1.79608C17.4683 0.608237 20.5447 -0.00209008 23.6513 5.37752e-06C26.7578 -0.00209008 29.8342 0.608237 32.7047 1.79608C35.5751 2.98393 38.1833 4.72598 40.3799 6.92262C42.5765 9.11926 44.3186 11.7274 45.5064 14.5978C46.6943 17.4683 47.3046 20.5447 47.3025 23.6513C47.3046 26.7578 46.6943 29.8342 45.5064 32.7047C44.3186 35.5751 42.5765 38.1833 40.3799 40.3799C38.1833 42.5765 35.5751 44.3186 32.7047 45.5064C29.8342 46.6943 26.7578 47.3046 23.6513 47.3025Z" fill="#EC1E27"/>
<path d="M17.8186 16H12.9258V31.81H17.8186V16Z" fill="white"/>
<path d="M15.347 14.8324C15.9263 14.8451 16.4964 14.6849 16.9843 14.3722C17.4722 14.0595 17.856 13.6086 18.0865 13.0769C18.3171 12.5452 18.384 11.9569 18.2788 11.387C18.1735 10.8171 17.9009 10.2914 17.4957 9.87716C17.0904 9.46287 16.571 9.17869 16.0036 9.06089C15.4361 8.94309 14.8465 8.997 14.3098 9.21575C13.7732 9.4345 13.3138 9.80817 12.9904 10.2891C12.6671 10.77 12.4943 11.3363 12.4941 11.9159C12.494 12.6785 12.7925 13.4108 13.3257 13.956C13.859 14.5011 14.5845 14.8158 15.347 14.8324Z" fill="white"/>
<path d="M25.6427 24.0012C25.6427 21.77 26.6627 20.4472 28.623 20.4472C30.5833 20.4472 31.3005 21.7222 31.3005 24.0012V32.3047H36.1614V22.28C36.1614 18.0406 33.7708 16.0006 30.408 16.0006C29.4532 15.9864 28.511 16.2197 27.6731 16.6778C26.8352 17.1358 26.1302 17.803 25.6267 18.6144V16.4787H20.957V32.3047H25.6427V24.0012Z" fill="white"/>
</svg>
