<svg width="142" height="38" viewBox="0 0 142 38" fill="none" xmlns="http://www.w3.org/2000/svg">
<path d="M15.038 12.1302C17.9057 12.1302 20.2303 9.80711 20.2303 6.94148C20.2303 4.07586 17.9057 1.75281 15.038 1.75281C12.1704 1.75281 9.84576 4.07586 9.84576 6.94148C9.84576 9.80711 12.1704 12.1302 15.038 12.1302Z" fill="white"/>
<path d="M52.8402 28.85H38.5136V2.20105H52.2371V5.2584H41.9408V13.7764H51.5017V16.819H41.9408V25.7706H52.8402V28.85Z" fill="white"/>
<path d="M53.2814 29.2543H38.0723V1.75281H52.6784V5.69944H42.3821V13.3355H51.9429V17.2674H42.3821V25.3517H53.2814V29.2543ZM38.9622 28.3723H52.3915V26.219H41.5142V16.3561H51.0383V14.2247H41.5142V4.81751H51.8105V2.61269H38.9622V28.3723Z" fill="white"/>
<path d="M71.8369 9.80786L65.4753 19.3621L71.7413 28.8502H67.8287L64.2029 22.8016C64.0043 22.4856 63.7322 21.9932 63.3792 21.3317H63.3057C63.0479 21.8381 62.7606 22.3289 62.4452 22.8016L58.7679 28.8502H54.8848L61.3494 19.5238L55.1789 9.80786H59.0989L62.6585 16.1651C62.8718 16.5546 63.1365 17.0617 63.4454 17.6791H63.5116L68.1376 9.80786H71.8369Z" fill="white"/>
<path d="M72.5797 29.2543H67.5786L63.8205 22.9706C63.6955 22.7648 63.5337 22.4855 63.3425 22.1254L62.8276 22.9706L59.0033 29.2249H54.039L60.8125 19.4428L54.37 9.36682H59.3563L63.0336 15.9813C63.1733 16.2238 63.3277 16.5178 63.4969 16.8485L67.9096 9.39622H72.6827L66.0636 19.4134L72.5797 29.2543ZM68.064 28.3724H70.9102L64.9457 19.384L71.0058 10.2561H68.395L63.769 18.12H63.2395L63.0483 17.8774C62.7467 17.2674 62.482 16.7677 62.2687 16.4075L58.8341 10.2561H55.9879L61.8716 19.4943L55.7305 28.3724H58.5032L62.0701 22.5369C62.7614 21.4051 62.8718 21.1847 62.8865 21.1479L62.9527 20.7804L63.5704 20.8466L63.769 21.0818C64.122 21.7359 64.3868 22.2209 64.578 22.5516L68.064 28.3724Z" fill="white"/>
<path d="M78.6618 26.1308V37.5592H75.2935V9.80783H78.6618V13.093H78.728C79.3658 11.928 80.3148 10.9628 81.4692 10.3049C82.6235 9.64701 83.938 9.32228 85.2662 9.36686C86.3543 9.3193 87.4384 9.52798 88.4311 9.97607C89.4237 10.4242 90.297 11.0991 90.9806 11.9465C92.3731 13.6271 93.0693 15.898 93.0693 18.7594C93.0693 21.9245 92.2848 24.465 90.7158 26.3807C89.961 27.3205 88.9965 28.0706 87.8994 28.5709C86.8024 29.0712 85.6033 29.3077 84.3983 29.2617C83.2611 29.2957 82.1357 29.0229 81.1405 28.4719C80.1453 27.921 79.317 27.1123 78.7427 26.1308H78.6618ZM78.6618 20.9863C78.6166 22.4325 79.1454 23.8379 80.1327 24.8961C80.6599 25.4356 81.2969 25.8555 82.0006 26.1275C82.7044 26.3995 83.4584 26.5171 84.2116 26.4725C84.9648 26.4279 85.6996 26.2221 86.3663 25.869C87.0329 25.5158 87.6158 25.0237 88.0756 24.4258C89.0856 23.0539 89.5906 21.1504 89.5906 18.7153C89.692 16.9957 89.1929 15.2942 88.1785 13.9014C87.7182 13.3286 87.1296 12.8718 86.4602 12.568C85.7908 12.2641 85.0594 12.1217 84.3248 12.1523C83.5551 12.1313 82.7902 12.279 82.0838 12.585C81.3773 12.891 80.7465 13.3478 80.2357 13.9235C79.1438 15.1759 78.5728 16.7984 78.6398 18.4581L78.6618 20.9863Z" fill="white"/>
<path d="M79.0957 38H74.8374V9.33734H79.0957V11.7479C79.8273 10.8226 80.7661 10.0818 81.8366 9.58523C82.907 9.08867 84.0792 8.8502 85.2587 8.88902C86.4109 8.84003 87.5586 9.06031 88.6107 9.53237C89.6627 10.0044 90.59 10.7152 91.3188 11.6083C92.7897 13.3795 93.5252 15.7828 93.5252 18.7299C93.5252 21.9857 92.7015 24.6094 91.0761 26.6305C90.2791 27.6209 89.2617 28.4116 88.1049 28.9399C86.9481 29.4681 85.684 29.7192 84.413 29.6731C83.4114 29.7132 82.4136 29.528 81.4933 29.1311C80.5729 28.7342 79.7536 28.1358 79.0957 27.3801V38ZM75.7273 37.1181H78.2131V25.6897H78.9486L79.0957 25.9102C79.6274 26.8318 80.3993 27.5919 81.3293 28.1096C82.2592 28.6273 83.3122 28.8832 84.3762 28.85C85.5167 28.899 86.6526 28.6783 87.6916 28.2058C88.7306 27.7332 89.6433 27.0223 90.3554 26.1307C91.8263 24.3007 92.5985 21.8313 92.5985 18.7813C92.5985 16.04 91.9366 13.8278 90.6275 12.2183C89.9851 11.4246 89.1637 10.7943 88.2304 10.3791C87.2972 9.96395 86.2788 9.77568 85.2587 9.82975C84.0076 9.77799 82.7671 10.0776 81.6777 10.6947C80.5884 11.3117 79.6939 12.2214 79.0957 13.3207L78.9633 13.5338H78.272L78.2058 13.0929V10.256H75.7199L75.7273 37.1181ZM83.8761 26.9171C83.117 26.9286 82.3641 26.7794 81.6669 26.4791C80.9697 26.1789 80.3441 25.7346 79.8311 25.1753C78.7585 24.0389 78.1772 22.5258 78.2131 20.9641V18.4506C78.1469 16.6815 78.76 14.9541 79.9267 13.622C80.4787 13.0013 81.1594 12.5081 81.9215 12.1768C82.6835 11.8456 83.5086 11.6842 84.3394 11.7038C85.1399 11.6739 85.9363 11.8311 86.6654 12.1628C87.3944 12.4945 88.0359 12.9917 88.5388 13.6147C89.6004 15.093 90.1198 16.8916 90.0097 18.7078C90.0097 21.2213 89.4729 23.235 88.4065 24.6755C87.8966 25.3935 87.2166 25.974 86.4273 26.3652C85.638 26.7563 84.764 26.946 83.8834 26.9171H83.8761ZM84.3247 12.5931C83.617 12.5688 82.9127 12.7019 82.2628 12.9828C81.6129 13.2637 81.0335 13.6854 80.5666 14.2173C79.5559 15.3905 79.03 16.904 79.0957 18.4506V20.9788C79.0756 21.6412 79.1867 22.301 79.4228 22.9203C79.6588 23.5396 80.015 24.1061 80.471 24.5873C80.9528 25.0805 81.5351 25.4643 82.1784 25.7128C82.8218 25.9613 83.511 26.0686 84.1995 26.0275C84.888 25.9864 85.5596 25.7978 86.1687 25.4745C86.7778 25.1512 87.3102 24.7007 87.7298 24.1537C88.6786 22.8602 89.1566 21.0302 89.1566 18.7078C89.2559 17.0828 88.7909 15.4733 87.8402 14.1512C87.4203 13.6329 86.8834 13.2214 86.2736 12.9506C85.6638 12.6798 84.9984 12.5573 84.3321 12.5931H84.3247Z" fill="white"/>
<path d="M113.272 20.1703H99.9606C99.9082 21.8917 100.504 23.5701 101.63 24.8739C102.21 25.4411 102.902 25.8812 103.662 26.1659C104.422 26.4507 105.233 26.5738 106.043 26.5275C108.179 26.5333 110.254 25.8128 111.926 24.4844V27.4903C110.254 28.6711 108.036 29.2615 105.271 29.2615C102.505 29.2615 100.355 28.3893 98.8206 26.6451C97.2762 24.9106 96.5064 22.4951 96.5113 19.3986C96.4113 16.7642 97.3155 14.1901 99.0413 12.1962C99.8176 11.2887 100.785 10.5644 101.875 10.0752C102.965 9.58593 104.15 9.34396 105.344 9.36665C106.433 9.3089 107.521 9.49392 108.53 9.9083C109.539 10.3227 110.443 10.9561 111.176 11.7626C112.574 13.3574 113.272 15.5989 113.272 18.4726V20.1703ZM109.904 17.473C109.982 16.0426 109.55 14.6308 108.683 13.4897C108.261 13.0144 107.737 12.6407 107.149 12.3964C106.562 12.152 105.928 12.0434 105.293 12.0786C104.643 12.0716 103.999 12.1985 103.4 12.4514C102.802 12.7043 102.262 13.0778 101.814 13.5485C100.797 14.6197 100.148 15.9865 99.9606 17.451L109.904 17.473Z" fill="white"/>
<path d="M105.256 29.7026C102.387 29.7026 100.108 28.7765 98.4896 26.9392C96.8716 25.1018 96.0626 22.5883 96.0626 19.3987C95.9655 16.6554 96.9115 13.977 98.7102 11.9023C99.5282 10.9518 100.545 10.192 101.688 9.67642C102.832 9.16089 104.075 8.90216 105.329 8.91846C106.481 8.8609 107.632 9.05983 108.698 9.50086C109.764 9.9419 110.718 10.614 111.492 11.4687C112.963 13.1444 113.699 15.5035 113.699 18.4727V20.6114H100.424C100.446 22.068 100.986 23.4694 101.946 24.5653C102.486 25.0891 103.129 25.4949 103.834 25.7568C104.539 26.0188 105.292 26.1311 106.043 26.0867C108.073 26.0824 110.042 25.3936 111.632 24.1317L112.367 23.5879V27.7182L112.184 27.8505C110.122 29.1705 107.701 29.8177 105.256 29.7026V29.7026ZM105.344 9.80774C104.211 9.78515 103.088 10.0148 102.055 10.4801C101.022 10.9453 100.105 11.6345 99.3721 12.4976C97.7242 14.4111 96.86 16.8758 96.9525 19.3987C96.9525 22.3385 97.6879 24.705 99.1588 26.3512C99.9325 27.1854 100.88 27.8391 101.935 28.2659C102.99 28.6927 104.127 28.8821 105.263 28.8206C107.436 28.9148 109.589 28.3706 111.456 27.2552V25.3444C109.849 26.408 107.963 26.9731 106.035 26.9686C105.167 27.0144 104.298 26.8785 103.485 26.5697C102.672 26.2609 101.933 25.786 101.314 25.1753C100.107 23.7975 99.4664 22.0151 99.5192 20.1851V19.7294H112.846V18.4727C112.846 15.724 112.176 13.5633 110.852 12.0493C110.161 11.287 109.307 10.6898 108.354 10.3018C107.4 9.91385 106.372 9.74498 105.344 9.80774V9.80774ZM110.352 17.8921H99.4456L99.5265 17.385C99.7239 15.8285 100.415 14.3759 101.498 13.2399C101.984 12.7221 102.572 12.3106 103.225 12.031C103.878 11.7515 104.582 11.6101 105.292 11.6157C105.992 11.5796 106.69 11.7016 107.336 11.9726C107.981 12.2437 108.558 12.6567 109.021 13.1811C109.956 14.4023 110.425 15.9159 110.345 17.4511L110.352 17.8921ZM100.497 17.0101H109.448C109.447 15.8334 109.06 14.6894 108.345 13.7544C107.965 13.3266 107.493 12.991 106.964 12.7732C106.435 12.5554 105.863 12.4611 105.292 12.4976C104.699 12.4918 104.111 12.6105 103.566 12.8459C103.021 13.0814 102.532 13.4284 102.13 13.8646C101.294 14.7426 100.727 15.842 100.497 17.0322V17.0101Z" fill="white"/>
<path d="M127.952 13.1443C127.262 12.7051 126.451 12.4943 125.635 12.5417C124.984 12.5458 124.345 12.716 123.779 13.0363C123.213 13.3566 122.738 13.8163 122.399 14.3717C121.491 15.8108 121.047 17.4936 121.127 19.1929V28.85H117.758V9.80771H121.127V13.6735H121.2C122.181 10.8807 123.843 9.48434 126.187 9.48434C126.786 9.45936 127.385 9.5466 127.952 9.74157V13.1443Z" fill="white"/>
<path d="M121.575 29.2543H117.339V9.36687H121.597V11.7775C122.031 10.9443 122.688 10.2477 123.494 9.76501C124.3 9.28236 125.225 9.0326 126.165 9.0435C126.824 9.01747 127.482 9.11468 128.106 9.33012L128.378 9.44771V14.0043L127.643 13.5046C127.026 13.1247 126.307 12.945 125.584 12.9901C125.004 12.9919 124.436 13.1439 123.933 13.4312C123.43 13.7184 123.011 14.1312 122.715 14.629C121.859 15.9921 121.443 17.5856 121.524 19.193L121.575 29.2543ZM118.2 28.3724H120.685V19.193C120.605 17.4039 121.077 15.6334 122.039 14.1219C122.415 13.5057 122.943 12.9963 123.573 12.6424C124.203 12.2885 124.913 12.1021 125.635 12.1008C126.274 12.0865 126.91 12.1912 127.51 12.4095V10.0577C127.076 9.95924 126.632 9.9148 126.187 9.92542C124.017 9.92542 122.509 11.2042 121.619 13.8206L121.516 14.1219H120.781L120.715 13.6736V10.2561H118.229L118.2 28.3724Z" fill="white"/>
<path d="M141.433 28.6223C140.516 29.0613 139.506 29.2683 138.491 29.2249C135.088 29.2249 133.384 27.341 133.379 23.5732V12.5932H130.114V9.8078H133.379V5.24382L136.733 4.17816V9.8078H141.462V12.5932H136.733V22.9706C136.654 23.9101 136.878 24.8503 137.373 25.6531C137.638 25.9426 137.966 26.1665 138.333 26.3068C138.699 26.4471 139.093 26.5001 139.484 26.4615C140.196 26.4768 140.893 26.2515 141.462 25.8221L141.433 28.6223Z" fill="white"/>
<path d="M138.461 29.6658C134.828 29.6658 132.909 27.5639 132.909 23.5732V13.0415H129.643V9.36679H132.909V4.91305L137.152 3.56812V9.36679H141.881V13.0415H137.152V22.9705C137.075 23.8104 137.262 24.6534 137.689 25.3811C137.915 25.6148 138.192 25.7933 138.498 25.903C138.804 26.0126 139.131 26.0503 139.454 26.0132C140.07 26.0306 140.674 25.8389 141.168 25.4693L141.903 24.9328V28.8868L141.668 29.0117C140.67 29.4919 139.568 29.7166 138.461 29.6658ZM130.526 12.1522H133.798V23.5732C133.798 27.0788 135.321 28.7839 138.461 28.7839C139.325 28.8141 140.186 28.6665 140.991 28.3503V26.5938C140.506 26.8031 139.982 26.9083 139.454 26.9025C138.994 26.9418 138.532 26.8724 138.104 26.7001C137.676 26.5277 137.294 26.2572 136.99 25.9103C136.429 25.0374 136.171 24.0045 136.255 22.9705V12.1522H140.984V10.2561H136.255V4.78077L133.791 5.56715V10.2561H130.518L130.526 12.1522Z" fill="white"/>
<path d="M5.93319 31.1505C5.81796 30.5596 5.75886 29.9592 5.75668 29.3572C5.76058 26.7004 6.81895 24.1537 8.6996 22.2757C10.5802 20.3977 13.1296 19.342 15.7882 19.34C17.2724 19.2645 18.7473 19.6128 20.0406 20.3442C21.3339 21.0757 22.392 22.16 23.0912 23.4704C23.4709 24.267 23.7548 25.1058 23.937 25.9692H11.2431C10.736 25.9692 10.2496 26.1705 9.89103 26.5288C9.53243 26.8872 9.33097 27.3732 9.33097 27.88C9.33097 28.3868 9.53243 28.8728 9.89103 29.2312C10.2496 29.5895 10.736 29.7909 11.2431 29.7909H28.3497V27.7257C28.2784 25.6102 27.6602 23.5491 26.5552 21.7433C25.4909 19.827 23.9257 18.2357 22.0267 17.1393C20.1277 16.0429 17.9664 15.4826 15.7735 15.5183C12.105 15.528 8.58973 16.9897 5.99707 19.5833C3.40441 22.1769 1.94552 25.6913 1.9397 29.3572C1.94273 29.9573 1.98696 30.5565 2.07208 31.1505H5.93319Z" fill="white"/>
</svg>
