<svg width="42" height="42" viewBox="0 0 42 42" fill="none" xmlns="http://www.w3.org/2000/svg">
<path d="M21 41C32.0457 41 41 32.0457 41 21C41 9.95431 32.0457 1 21 1C9.95431 1 1 9.95431 1 21C1 32.0457 9.95431 41 21 41Z" fill="#DC0000" stroke="white" stroke-width="2" stroke-miterlimit="10"/>
<path d="M29.917 15.1484L29.1465 14.3779L22.0099 21.5146C21.1178 22.4066 19.6175 22.4066 18.7254 21.5146L11.5888 14.4185L10.8184 15.1889L16.1303 20.5008L10.8184 25.8128L11.5888 26.5832L16.9007 21.2713L17.955 22.3255C18.6038 22.9743 19.4553 23.3393 20.3474 23.3393C21.2395 23.3393 22.091 22.9743 22.7398 22.3255L23.7941 21.2713L29.106 26.5832L29.8764 25.8128L24.5645 20.5008L29.917 15.1484Z" fill="white"/>
<path d="M28.4167 27.962H12.3998C11.4672 27.962 10.6968 27.1916 10.6968 26.259V14.8242C10.6968 13.8915 11.4672 13.1211 12.3998 13.1211H28.4167C29.3493 13.1211 30.1198 13.8915 30.1198 14.8242V26.259C30.1198 27.1916 29.3493 27.962 28.4167 27.962ZM12.3593 14.2159C12.0349 14.2159 11.7916 14.4592 11.7916 14.7836V26.2184C11.7916 26.5428 12.0349 26.7861 12.3593 26.7861H28.3762C28.7005 26.7861 28.9438 26.5428 28.9438 26.2184V14.7836C28.9438 14.4592 28.7005 14.2159 28.3762 14.2159H12.3593Z" fill="white"/>
</svg>
