<svg width="42" height="42" viewBox="0 0 42 42" fill="none" xmlns="http://www.w3.org/2000/svg">
<path d="M21 41C32.0457 41 41 32.0457 41 21C41 9.95431 32.0457 1 21 1C9.95431 1 1 9.95431 1 21C1 32.0457 9.95431 41 21 41Z" fill="#DC0000" stroke="white" stroke-width="2" stroke-miterlimit="10"/>
<path d="M30.0908 24.4342C30.0908 24.9343 29.8921 25.4139 29.5385 25.7675C29.1849 26.1211 28.7053 26.3197 28.2053 26.3197H16.8921L13.1211 30.0908V15.0066C13.1211 14.5065 13.3197 14.027 13.6734 13.6734C14.027 13.3197 14.5065 13.1211 15.0066 13.1211H28.2053C28.7053 13.1211 29.1849 13.3197 29.5385 13.6734C29.8921 14.027 30.0908 14.5065 30.0908 15.0066V24.4342Z" stroke="white" stroke-width="1.5" stroke-linecap="round" stroke-linejoin="round"/>
</svg>
