<svg xmlns="http://www.w3.org/2000/svg" width="22.715" height="21.895" viewBox="0 0 22.715 21.895">
  <path id="Path_70" data-name="Path 70" d="M592.405,3142.553l-9.894-9a1.471,1.471,0,0,0-1.977,0l-9.894,9a1.462,1.462,0,0,0-.093,2.065h0a1.485,1.485,0,0,0,1.084.477,1.457,1.457,0,0,0,.992-.383l8.9-8.1,8.9,8.1a1.466,1.466,0,0,0,1.983-2.159Zm-18.719,2.525v9.16a.783.783,0,0,0,.416.669,1.238,1.238,0,0,0,.625.158h13.591a1.238,1.238,0,0,0,.625-.158.8.8,0,0,0,.416-.669v-9.16l-7.839-7.127Zm4.607-.723h6.437v4.487h-6.437Zm-6.092-10.008,6.026.186-5.648,5.445Z" transform="translate(-570.165 -3133.17)" fill="#f98715"/>
</svg>
