<svg width="35" height="34" viewBox="0 0 35 34" fill="none" xmlns="http://www.w3.org/2000/svg">
<ellipse cx="17.5" cy="17" rx="17.5" ry="17" fill="#F4F4F4"/>
<path d="M24.3487 12.0617H21.5104V11.1371C21.508 10.9548 21.4338 10.7808 21.3041 10.6528C21.1743 10.5247 20.9993 10.453 20.817 10.453H18.2098V10.0184C18.2211 9.92129 18.2117 9.82286 18.1822 9.7296C18.1528 9.63634 18.1039 9.55037 18.0389 9.47733C17.9738 9.4043 17.894 9.34585 17.8048 9.30583C17.7156 9.26581 17.6189 9.24512 17.5211 9.24512C17.4233 9.24512 17.3266 9.26581 17.2373 9.30583C17.1481 9.34585 17.0683 9.4043 17.0033 9.47733C16.9382 9.55037 16.8894 9.63634 16.8599 9.7296C16.8304 9.82286 16.821 9.92129 16.8323 10.0184V10.453H14.2159C14.0344 10.453 13.8604 10.5251 13.7321 10.6534C13.6038 10.7817 13.5317 10.9557 13.5317 11.1371V12.0617H10.6842C10.5019 12.0641 10.3279 12.1382 10.1998 12.268C10.0718 12.3978 10 12.5727 10 12.755V24.21C9.99881 24.422 10.0395 24.6322 10.1198 24.8284C10.2001 25.0247 10.3184 25.2031 10.4679 25.3534C10.6174 25.5038 10.7952 25.6231 10.9909 25.7045C11.1867 25.786 11.3967 25.8279 11.6087 25.8279H23.4242C23.6362 25.8279 23.8462 25.786 24.0419 25.7045C24.2377 25.6231 24.4155 25.5038 24.565 25.3534C24.7145 25.2031 24.8328 25.0247 24.9131 24.8284C24.9934 24.6322 25.0341 24.422 25.0329 24.21V12.755C25.0329 12.5727 24.9611 12.3978 24.833 12.268C24.705 12.1382 24.531 12.0641 24.3487 12.0617ZM14.9093 11.8028H20.1236V13.6518H14.9093V11.8028ZM23.6553 24.21C23.6566 24.2411 23.6515 24.2721 23.6404 24.3012C23.6294 24.3304 23.6126 24.3569 23.591 24.3794C23.5694 24.4019 23.5435 24.4197 23.5148 24.4319C23.4862 24.4441 23.4553 24.4504 23.4242 24.4503H11.6087C11.5466 24.4479 11.4878 24.4216 11.4447 24.3767C11.4016 24.3319 11.3775 24.2721 11.3776 24.21V13.4484H13.5317V14.3267C13.5317 14.5082 13.6038 14.6822 13.7321 14.8105C13.8604 14.9388 14.0344 15.0109 14.2159 15.0109H20.817C20.9993 15.0109 21.1743 14.9391 21.3041 14.8111C21.4338 14.683 21.508 14.509 21.5104 14.3267V13.4669H23.6553V24.21Z" fill="#A7A7A7"/>
<path d="M19.2729 17.5444L16.7027 20.1146L15.7319 19.1901C15.6659 19.1278 15.5881 19.0795 15.503 19.0481C15.4179 19.0166 15.3273 19.0026 15.2367 19.0069C15.1461 19.0112 15.0573 19.0338 14.9756 19.0732C14.8939 19.1126 14.8209 19.1681 14.7612 19.2363C14.6401 19.3719 14.5771 19.5496 14.5857 19.7312C14.5944 19.9127 14.674 20.0836 14.8074 20.2071L16.2589 21.5292C16.3875 21.6404 16.5512 21.7026 16.7212 21.7048C16.8123 21.7058 16.9028 21.6882 16.987 21.6533C17.0712 21.6183 17.1475 21.5667 17.2112 21.5014L20.2436 18.469C20.3076 18.4054 20.3584 18.3298 20.3931 18.2465C20.4278 18.1632 20.4456 18.0738 20.4456 17.9836C20.4456 17.8934 20.4278 17.804 20.3931 17.7207C20.3584 17.6374 20.3076 17.5618 20.2436 17.4982C20.1814 17.4319 20.1062 17.379 20.0227 17.3429C19.9392 17.3067 19.8492 17.2881 19.7582 17.2881C19.6673 17.2881 19.5773 17.3067 19.4938 17.3429C19.4103 17.379 19.3351 17.4319 19.2729 17.4982V17.5444Z" fill="#A7A7A7"/>
</svg>
