<svg width="41" height="41" viewBox="0 0 41 41" fill="none" xmlns="http://www.w3.org/2000/svg">
<path d="M21.9769 0C22.136 0.318093 22.4541 0.286284 22.7403 0.333998C26.9894 0.83631 30.9617 2.70031 34.0636 5.64736C37.1654 8.5944 39.2302 12.4662 39.9492 16.684C40.699 20.2748 40.419 24.0044 39.1415 27.443C37.864 30.8816 35.6409 33.8893 32.7285 36.1194C31.9809 36.7556 31.2334 36.7556 30.7404 36.1194C30.6227 35.9639 30.5389 35.7855 30.4942 35.5957C30.4495 35.4059 30.445 35.2088 30.4809 35.0171C30.5169 34.8254 30.5925 34.6434 30.7029 34.4826C30.8133 34.3219 30.9561 34.186 31.1221 34.0837C33.3677 32.2592 35.1257 29.9064 36.2388 27.2358C37.3519 24.5652 37.7853 21.6602 37.5001 18.781C37.215 15.9018 36.2203 13.1383 34.605 10.7379C32.9897 8.33746 30.8043 6.37512 28.2445 5.02658C25.6847 3.67804 22.8305 2.98541 19.9373 3.01069C17.0441 3.03598 14.2024 3.7784 11.6666 5.17147C9.13073 6.56455 6.97998 8.56478 5.4069 10.9931C3.83382 13.4213 2.88754 16.2018 2.65277 19.0856C2.42367 21.8786 2.88397 24.6851 3.99324 27.2586C5.10251 29.8321 6.8268 32.0939 9.01463 33.8451C9.20549 34.02 9.42815 34.1791 9.6031 34.3699C9.84964 34.5873 9.99983 34.8936 10.0207 35.2217C10.0416 35.5497 9.93143 35.8726 9.71444 36.1194C9.48385 36.3678 9.16564 36.5167 8.8272 36.5345C8.48877 36.5523 8.15669 36.4377 7.90131 36.2149C6.67597 35.301 5.57462 34.2317 4.62495 33.0339C2.28753 30.2782 0.762557 26.9267 0.220479 23.354C-0.321599 19.7813 0.140578 16.1283 1.55535 12.8032C2.82533 9.45033 4.99517 6.51249 7.82634 4.31264C10.6575 2.1128 14.0404 0.736145 17.6031 0.333998C17.9053 0.333998 18.2552 0.333998 18.4461 0H21.9769Z" fill="#DC0000"/>
<path d="M32.14 20.4061C32.1343 22.0005 31.8042 23.5771 31.1698 25.0399C30.5355 26.5027 29.6102 27.8212 28.4501 28.915C27.7026 29.6307 26.8597 29.7262 26.3348 29.1536C25.81 28.581 25.8577 27.8335 26.6211 27.0701C27.7604 26.006 28.6136 24.6723 29.102 23.1919C29.5904 21.7114 29.6983 20.1318 29.4158 18.5987C29.1333 17.0656 28.4694 15.6282 27.4854 14.4191C26.5014 13.21 25.2289 12.268 23.7852 11.6799C22.3414 11.0918 20.7729 10.8765 19.224 11.054C17.6752 11.2314 16.196 11.7958 14.9227 12.6952C13.6493 13.5946 12.6228 14.8 11.9378 16.2003C11.2527 17.6007 10.9312 19.151 11.0027 20.7082C11.1178 23.089 12.1561 25.3312 13.8974 26.9588C14.1175 27.1545 14.3102 27.3792 14.4699 27.6268C14.6376 27.8745 14.7047 28.1769 14.6574 28.4723C14.6101 28.7678 14.4521 29.0341 14.2155 29.2172C13.9898 29.4368 13.6874 29.5596 13.3725 29.5596C13.0577 29.5596 12.7552 29.4368 12.5296 29.2172C11.7961 28.5957 11.1489 27.8789 10.6051 27.086C9.58215 25.6124 8.90663 23.926 8.62938 22.1537C8.35213 20.3814 8.48036 18.5693 9.00444 16.8537C9.52851 15.1381 10.4348 13.5636 11.6551 12.2488C12.8754 10.9339 14.3779 9.91287 16.0497 9.26245C17.7215 8.61203 19.5191 8.34916 21.3071 8.49361C23.0951 8.63806 24.8272 9.18607 26.3729 10.0964C27.9186 11.0068 29.2378 12.2558 30.2312 13.7495C31.2246 15.2432 31.8663 16.9427 32.1082 18.7202C32.1241 19.2609 32.1082 19.8335 32.14 20.4061Z" fill="#DC0000"/>
<path d="M18.923 31.7141C18.923 29.3761 18.923 27.0222 18.923 24.6683C18.9505 24.4055 18.9004 24.1404 18.7788 23.9058C18.6573 23.6712 18.4697 23.4774 18.2391 23.3482C17.5778 22.9315 17.0728 22.3079 16.8024 21.5745C16.532 20.841 16.5115 20.0388 16.7441 19.2926C16.9672 18.5441 17.4259 17.8877 18.0521 17.421C18.6782 16.9543 19.4383 16.7021 20.2193 16.7021C21.0002 16.7021 21.7603 16.9543 22.3865 17.421C23.0126 17.8877 23.4713 18.5441 23.6944 19.2926C23.9563 20.0375 23.9572 20.8493 23.6972 21.5949C23.4371 22.3404 22.9314 22.9755 22.263 23.396C22.006 23.5471 21.7967 23.7674 21.6589 24.0317C21.5211 24.2961 21.4604 24.5938 21.4837 24.891C21.4837 29.4556 21.4837 34.0362 21.4837 38.6008C21.4837 39.905 21.0861 40.5094 20.1954 40.5094C19.3047 40.5094 18.9071 39.9209 18.9071 38.6008V31.7141H18.923Z" fill="#DC0000"/>
</svg>
