<svg id="Layer_1" data-name="Layer 1" xmlns="http://www.w3.org/2000/svg" viewBox="0 0 75 75"><defs><style>.cls-1{fill:#fff;}.cls-2{fill:#d10100;}</style></defs><rect class="cls-1" x="0.17" y="0.17" width="74.67" height="74.67" rx="7.13"/><path class="cls-2" d="M18.84,51c0,2.43,0,4.89,0,7.28,0,1,0,1.93,0,2.89H56.16c0-1,0-2,0-2.94,0-2.43,0-4.94,0-7.41A11.84,11.84,0,0,0,49,39.71a13.13,13.13,0,0,0-1.53-.58l-.77-.26-.39-.14.19-.38a1.54,1.54,0,0,1,.12-.23,10.55,10.55,0,0,0,1.46-3.43,1,1,0,0,1,.66-.71A3.92,3.92,0,0,0,49,26.77a1,1,0,0,1-.67-1,11.9,11.9,0,0,0-.53-4.35A10.72,10.72,0,0,0,39.16,14a10.92,10.92,0,0,0-11.32,5.76,12.15,12.15,0,0,0-1.2,5.95,1,1,0,0,1-.66,1A3.91,3.91,0,0,0,26.22,34a1.12,1.12,0,0,1,.76.87A10.24,10.24,0,0,0,28.31,38l.17.28.3.55-.84.24-.74.22a9.34,9.34,0,0,0-1.05.4A12,12,0,0,0,18.84,51ZM26.55,59H20.91v-6.1h5.64Zm27.52,0H48.44V52.93h5.63ZM28.69,32.51c0-.11,0-.22,0-.34h-1a1.88,1.88,0,0,1-1.9-1.81,1.9,1.9,0,0,1,1.81-1.93c.32,0,.65,0,1,0h.1v-.27c0-.51,0-1,0-1.53a27,27,0,0,1,.17-3.47A8.75,8.75,0,0,1,46,22.75,10.49,10.49,0,0,1,46.29,25c0,.87,0,1.76,0,2.66v.79h.08c.35,0,.68,0,1,0a1.88,1.88,0,0,1,1.79,1.69,1.85,1.85,0,0,1-1.29,2,3.1,3.1,0,0,1-.73.09h-.82l-.14,1.14a8.7,8.7,0,0,1-3.37,5.87A8.82,8.82,0,0,1,37.54,41a7.32,7.32,0,0,1-1.24-.1A8.74,8.74,0,0,1,28.69,32.51Zm.88,8.3a2.54,2.54,0,0,1,2,.43,10.65,10.65,0,0,0,12.07-.11,2.21,2.21,0,0,1,1.71-.33,10.09,10.09,0,0,1,8.76,9.43v.14l0,.35-.35.08H48.42V48H46.37V59H28.65V48H26.58v2.75H20.91v-.38a9.35,9.35,0,0,1,.9-3.86A10,10,0,0,1,29.57,40.81Z"/></svg>