<svg width="48" height="48" viewBox="0 0 48 48" fill="none" xmlns="http://www.w3.org/2000/svg">
<path d="M23.6513 47.3025C20.5447 47.3046 17.4683 46.6943 14.5978 45.5064C11.7274 44.3186 9.11926 42.5765 6.92262 40.3799C4.72598 38.1833 2.98393 35.5751 1.79608 32.7047C0.608237 29.8342 -0.00209008 26.7578 5.37752e-06 23.6513C-0.00209008 20.5447 0.608237 17.4683 1.79608 14.5978C2.98393 11.7274 4.72598 9.11926 6.92262 6.92262C9.11926 4.72598 11.7274 2.98393 14.5978 1.79608C17.4683 0.608237 20.5447 -0.00209008 23.6513 5.37752e-06C26.7578 -0.00209008 29.8342 0.608237 32.7047 1.79608C35.5751 2.98393 38.1833 4.72598 40.3799 6.92262C42.5765 9.11926 44.3186 11.7274 45.5064 14.5978C46.6943 17.4683 47.3046 20.5447 47.3025 23.6513C47.3046 26.7578 46.6943 29.8342 45.5064 32.7047C44.3186 35.5751 42.5765 38.1833 40.3799 40.3799C38.1833 42.5765 35.5751 44.3186 32.7047 45.5064C29.8342 46.6943 26.7578 47.3046 23.6513 47.3025Z" fill="#EC1E27"/>
<path d="M16.0806 26.2562C16.1591 26.2945 16.2453 26.3143 16.3326 26.3142C16.4199 26.314 16.506 26.294 16.5844 26.2556C16.6628 26.2172 16.7313 26.1614 16.7849 26.0924C16.8385 26.0235 16.8756 25.9433 16.8934 25.8578C16.8934 25.5709 17.1325 24.8537 17.2122 24.5509C17.2768 24.3981 17.29 24.2284 17.2498 24.0674C17.2095 23.9064 17.118 23.7629 16.9891 23.6584C16.2457 22.7676 15.8645 21.6298 15.9212 20.4709C15.9072 19.4316 16.1056 18.4004 16.5042 17.4404C16.9028 16.4804 17.4932 15.612 18.2393 14.8883C18.9854 14.1646 19.8715 13.6008 20.8431 13.2317C21.8148 12.8625 22.8516 12.6956 23.89 12.7412C28.2091 12.7412 30.5997 15.3869 30.5997 18.925C30.5997 23.5787 28.5437 27.5153 25.4837 27.5153C25.0934 27.5345 24.704 27.462 24.3468 27.3037C23.9895 27.1453 23.6743 26.9054 23.4264 26.6033C23.1785 26.3012 23.0048 25.9452 22.9193 25.5639C22.8337 25.1826 22.8387 24.7866 22.9337 24.4075C23.5653 22.5378 24.0398 20.6186 24.3522 18.67C24.3884 18.3647 24.3592 18.0552 24.2666 17.762C24.174 17.4689 24.0201 17.1988 23.8151 16.9697C23.6101 16.7406 23.3587 16.5577 23.0776 16.4332C22.7965 16.3087 22.4921 16.2454 22.1847 16.2475C20.4634 16.2475 18.9972 18.0325 18.9972 20.4231C18.988 21.3045 19.1616 22.1782 19.5072 22.9891C19.5072 22.9891 17.7381 30.4637 17.4353 31.7866C17.082 33.8113 17.082 35.8819 17.4353 37.9066C17.4383 37.9503 17.455 37.9919 17.4831 38.0255C17.5112 38.0591 17.5493 38.0829 17.5918 38.0935C17.6343 38.1041 17.679 38.101 17.7196 38.0846C17.7603 38.0682 17.7946 38.0394 17.8178 38.0022C19.0916 36.4308 20.0739 34.6442 20.7184 32.7269C20.9256 32.0097 21.8659 28.2803 21.8659 28.2803C22.2983 28.9222 22.8859 29.4443 23.5741 29.7982C24.2624 30.1521 25.0289 30.3262 25.8025 30.3044C30.9981 30.3044 34.5044 25.5231 34.5044 19.2437C34.5044 14.4625 30.4562 10 24.2884 10C16.6225 10 12.7656 15.4825 12.7656 20.0725C12.7816 22.8616 13.8334 25.3319 16.0806 26.2562Z" fill="white"/>
</svg>
