<svg id="Layer_1" data-name="Layer 1" xmlns="http://www.w3.org/2000/svg" viewBox="0 0 200 200"><defs><style>.cls-1{fill:#ec1e27;}.cls-2{fill:#fff;}</style></defs><circle class="cls-1" cx="99.68" cy="99.73" r="97.72"/><path class="cls-2" d="M83.64,96.11c-5.67,0-11.34,0-17,0-.69,0-1-.14-1.24-.89-3.5-12-7-24-10.61-36C53.15,53.9,56.5,49.68,60.67,49a8.07,8.07,0,0,1,5,1q23.06,11.67,46.12,23.31,19.43,9.83,38.85,19.66a7.5,7.5,0,0,1,2.79,11.4,9,9,0,0,1-3.21,2.45L73,145.8c-2.62,1.32-5.22,2.7-7.88,4a7.53,7.53,0,0,1-10.85-6.88,9.58,9.58,0,0,1,.48-2.55q5.3-18,10.59-35.9c.24-.82.53-1.1,1.43-1.1,11.23,0,22.46,0,33.69,0a3.67,3.67,0,0,0,4-3.1,3.57,3.57,0,0,0-3.68-4.15C95.06,96.1,89.35,96.11,83.64,96.11Z"/></svg>