<svg width="44" height="39" viewBox="0 0 44 39" fill="none" xmlns="http://www.w3.org/2000/svg">
<path d="M16.9814 31.4997C13.8462 29.0577 11.2113 25.9965 9.22955 22.4937C6.25244 23.0087 3.40281 24.1255 0.84375 25.7803C4.10009 31.5792 11.4869 36.3553 17.4424 37.7851C19.8509 38.4454 22.3902 38.3938 24.7716 37.6362C24.732 36.8225 24.863 36.0095 25.1558 35.2531C25.4951 34.9197 25.851 34.6048 26.2221 34.3098C22.9124 34.579 19.6228 33.5786 16.9814 31.4997Z" fill="#F98715"/>
<path d="M17.1635 22.0271C16.1436 19.4813 15.4399 16.8122 15.0694 14.0835C12.1269 13.3749 9.07807 13.2737 6.09766 13.7856C6.57674 16.8669 7.64101 19.8197 9.22912 22.4739C11.8454 21.9828 14.511 21.8327 17.1635 22.0271Z" fill="#F98715"/>
<path d="M17.1641 22.0268C14.5108 21.839 11.8452 21.9958 9.22974 22.4935C11.2115 25.9963 13.8464 29.0576 16.9816 31.4996C19.6306 33.5855 22.9318 34.5863 26.2511 34.3096C26.3664 34.2203 26.6929 33.9522 27.0195 33.7139C27.0102 33.0903 26.8998 32.4727 26.6929 31.8868C24.0372 31.0744 21.6889 29.4341 19.9689 27.1902C19.7696 27.1467 19.5876 27.0419 19.447 26.8895C19.3064 26.737 19.2138 26.5442 19.1813 26.3362C19.1813 26.3362 19.1813 26.2369 19.1813 26.088C18.3878 24.8022 17.7125 23.4426 17.1641 22.0268Z" fill="#F98715"/>
<path d="M15.406 4.83887C14.702 7.87353 14.5878 11.0224 15.0698 14.1031C17.3057 14.5994 19.483 15.3452 21.5632 16.3273C21.8248 15.6081 22.1462 14.9138 22.5238 14.252C22.5421 14.0313 22.6077 13.8176 22.7159 13.6265C22.8815 11.952 23.1673 10.2925 23.5708 8.66173C21.1216 6.84003 18.346 5.54049 15.406 4.83887Z" fill="#F98715"/>
<path d="M17.1634 22.0268C17.9703 22.0864 18.7483 22.1857 19.488 22.3048L19.4111 22.424C19.5168 22.2651 19.7089 22.0168 19.6224 21.8878C19.536 21.7587 19.0461 21.2423 19.0461 21.2423C19.0461 21.2423 18.5946 20.9147 19.0461 20.3586C19.4976 19.8026 20.9673 19.0181 21.1209 18.6011C21.3241 17.8559 21.4718 17.0957 21.5628 16.3272C19.4825 15.3451 17.3053 14.5994 15.0693 14.103C15.4415 16.825 16.1451 19.4873 17.1634 22.0268Z" fill="#F98715"/>
<path d="M17.1638 22.0269C17.7307 23.4449 18.4253 24.8046 19.2387 26.088C19.2387 26.088 19.2387 25.9391 19.2387 25.9192V25.7504C19.2387 25.6908 19.2387 25.6313 19.2387 25.5717C19.2569 25.5105 19.2794 25.4508 19.3059 25.393C19.3489 25.329 19.3784 25.2564 19.3925 25.1799C19.4066 25.1034 19.405 25.0247 19.3877 24.9488C19.3705 24.873 19.3381 24.8018 19.2926 24.7397C19.247 24.6777 19.1894 24.6262 19.1234 24.5887C19.0738 24.5565 19.0329 24.5119 19.0045 24.4589C18.9762 24.4059 18.9613 24.3464 18.9613 24.2858C18.9613 24.2253 18.9762 24.1657 19.0045 24.1128C19.0329 24.0598 19.0738 24.0151 19.1234 23.983C19.2579 23.8737 19.6133 23.6851 19.5749 23.6255C19.5364 23.5659 18.8929 23.1787 18.9889 22.8411C19.085 22.5035 19.2194 22.573 19.3251 22.424L19.402 22.3049C18.7488 22.2254 17.9707 22.0864 17.1638 22.0269Z" fill="#F98715"/>
<path d="M26.6931 31.8869C26.3473 30.9833 25.4443 30.0599 24.4934 28.2229C24.0131 27.2896 22.8988 27.3094 21.9959 27.369H21.0353H20.8528C20.6781 27.3571 20.5046 27.3306 20.3341 27.2896H20.1804H20.0171C21.7382 29.4884 24.0671 31.0922 26.6931 31.8869Z" fill="#F98715"/>
<path d="M33.4457 7.04325C31.8592 4.38761 29.7835 2.07999 27.3365 0.251465C25.5588 2.77912 24.2793 5.64354 23.571 8.68163C24.6812 9.47976 25.7371 10.3556 26.7313 11.303C28.0242 11.162 29.3314 11.2937 30.5736 11.6903C31.4062 10.0626 32.3668 8.50832 33.4457 7.04325Z" fill="#F98715"/>
<path d="M23.5707 8.68164C23.1672 10.3124 22.8814 11.9719 22.7158 13.6464C23.1655 12.9628 23.7618 12.3956 24.4582 11.9892C25.1547 11.5827 25.9324 11.3479 26.731 11.303C25.7368 10.3556 24.6809 9.47978 23.5707 8.68164Z" fill="#F98715"/>
<path d="M40.0449 0.767822C37.4657 2.38841 35.2228 4.52132 33.4458 7.04328C34.6174 8.94108 35.599 10.9572 36.3755 13.0606C37.4561 13.8673 38.1955 15.0724 38.4408 16.4267C38.5893 17.4539 38.3998 18.5029 37.9029 19.4055C38.3159 23.8738 36.9423 26.9718 34.4352 30.5961C34.6497 30.9705 34.9223 31.306 35.2421 31.589C39.2381 29.0074 41.7932 26.5051 42.9267 21.4311C44.4155 15.3444 43.5991 6.33828 40.0449 0.767822Z" fill="#F98715"/>
<path d="M37.9026 19.4451C37.805 19.6432 37.646 19.8018 37.4509 19.8954C37.2559 19.989 37.0361 20.0123 36.8267 19.9614C37.033 20.854 36.9997 21.7877 36.7307 22.6622C36.2888 24.2311 35.626 27.1305 33.0613 27.9447C33.4663 28.8695 33.925 29.7681 34.4349 30.6356C36.9228 27.0114 38.3156 23.9134 37.9026 19.4451Z" fill="#F98715"/>
<path d="M30.6213 11.6505C31.7749 11.9229 32.8386 12.5052 33.7048 13.3385C33.8489 12.4349 34.9919 12.0378 36.3752 13.0605C35.5986 10.9572 34.617 8.94102 33.4454 7.04321C32.3849 8.49736 31.4404 10.0382 30.6213 11.6505Z" fill="#F98715"/>
</svg>
