<svg id="Layer_1" data-name="Layer 1" xmlns="http://www.w3.org/2000/svg" xmlns:xlink="http://www.w3.org/1999/xlink" viewBox="0 0 93.98 94.55"><defs><style>.cls-1{fill:none;}.cls-2{fill:#ffe9ec;opacity:0.58;}.cls-3{fill:#dc0000;stroke:#fff;stroke-miterlimit:10;stroke-width:2px;}.cls-4{clip-path:url(#clip-path);}.cls-5{fill:#fff;}</style><clipPath id="clip-path"><path class="cls-1" d="M51.18,37.21,50.11,45.8a10.75,10.75,0,0,1,2.55,2.56,28.79,28.79,0,0,1,3,4.61v3.21H42.78l-1,.9-5.88-1.73,2.8-15.42-.29-3.75,9.1-1.89Z"/></clipPath></defs><title>final home page v2</title><circle class="cls-2" cx="46.77" cy="47.69" r="45.21"/><circle class="cls-3" cx="46.77" cy="47.69" r="19.72"/><g class="cls-4"><path class="cls-5" d="M77.08,48.73a8.27,8.27,0,0,0-4.84-2.19l-.62-.06a1.49,1.49,0,0,0-.36,0c-.26,0-.53,0-.79,0a11,11,0,0,0-5.75,2c-.27.17-.57.38-.89.6-.63.44-1.24.91-1.83,1.4s-1.08.94-1.52,1.38l0,0c-2.81-3.89-6.17-5.54-9-5.54a5.47,5.47,0,0,1,1.73,1.49,5.51,5.51,0,0,1,1,1.54s1.59.12,4.37,4.42c-.5.53-1,1-1.41,1.53C56.54,56,56,56.56,55.55,57c-4.68,4.67-6.09,4.67-8.65,4.67a6.41,6.41,0,0,1,0-12.82,5,5,0,0,1,4.67,2.65,6.66,6.66,0,0,1,.53,1.6H44a1.22,1.22,0,1,0,0,2.44H54.92l0-1.32a7.89,7.89,0,0,0-1.14-3.83,7.76,7.76,0,0,0-6.9-4,8.86,8.86,0,0,0,0,17.71,9.58,9.58,0,0,0,4.42-.76,21.47,21.47,0,0,0,6-4.64c.5-.5,1.07-1.13,1.68-1.79l.95-1c1.78,2.77,4.12,5.91,7.71,7.4a8.93,8.93,0,0,0,1.92.6h0a9.49,9.49,0,0,0,1.33.15,8.58,8.58,0,0,0,5.8-1.92,8.45,8.45,0,0,0,3.23-5.72A8.57,8.57,0,0,0,77.08,48.73ZM73.93,61.18a5.93,5.93,0,0,1-4,.47h0c-2.89-.93-4.76-2.36-8.15-7.71a.76.76,0,0,0,.09-.09l.74-.7a31.68,31.68,0,0,1,3.91-2.91l.35-.19a11.48,11.48,0,0,1,1.62-.7c3.57-1.18,7.31-.1,8.72,3.5A6.54,6.54,0,0,1,73.93,61.18Z"/><circle class="cls-5" cx="46.42" cy="40.94" r="3.32"/></g></svg>