<svg width="48" height="48" viewBox="0 0 48 48" fill="none" xmlns="http://www.w3.org/2000/svg">
<path d="M23.6513 47.3025C20.5447 47.3046 17.4683 46.6943 14.5978 45.5064C11.7274 44.3186 9.11926 42.5765 6.92262 40.3799C4.72598 38.1833 2.98393 35.5751 1.79608 32.7047C0.608237 29.8342 -0.00209008 26.7578 5.37752e-06 23.6513C-0.00209008 20.5447 0.608237 17.4683 1.79608 14.5978C2.98393 11.7274 4.72598 9.11926 6.92262 6.92262C9.11926 4.72598 11.7274 2.98393 14.5978 1.79608C17.4683 0.608237 20.5447 -0.00209008 23.6513 5.37752e-06C26.7578 -0.00209008 29.8342 0.608237 32.7047 1.79608C35.5751 2.98393 38.1833 4.72598 40.3799 6.92262C42.5765 9.11926 44.3186 11.7274 45.5064 14.5978C46.6943 17.4683 47.3046 20.5447 47.3025 23.6513C47.3046 26.7578 46.6943 29.8342 45.5064 32.7047C44.3186 35.5751 42.5765 38.1833 40.3799 40.3799C38.1833 42.5765 35.5751 44.3186 32.7047 45.5064C29.8342 46.6943 26.7578 47.3046 23.6513 47.3025Z" fill="#EC1E27"/>
<path d="M11.0449 31.1719C13.3165 32.6276 15.9447 33.4305 18.6419 33.4928C21.3392 33.5551 24.0016 32.8745 26.338 31.5253C28.6744 30.1761 30.5947 28.2104 31.889 25.8431C33.1832 23.4758 33.8015 20.7982 33.6762 18.1032C34.6917 17.3743 35.5666 16.4671 36.258 15.4257C35.3185 15.8501 34.3182 16.1243 33.2937 16.2385C34.3685 15.5928 35.1726 14.5792 35.5568 13.3857C34.5399 13.9847 33.4303 14.4102 32.2737 14.6447C31.4908 13.8063 30.4518 13.2515 29.3196 13.0672C28.1874 12.883 27.0261 13.0798 26.0178 13.6268C25.0096 14.1738 24.2114 15.04 23.7485 16.0895C23.2856 17.1391 23.1842 18.3126 23.4602 19.426C21.4041 19.3208 19.3928 18.7856 17.5563 17.855C15.7198 16.9244 14.0988 15.619 12.798 14.0232C12.134 15.1599 11.9291 16.5072 12.2254 17.7899C12.5216 19.0726 13.2965 20.1937 14.3918 20.9241C13.569 20.9023 12.7643 20.6778 12.049 20.2707C12.0321 21.477 12.4368 22.6514 13.1933 23.5912C13.9498 24.5311 15.0106 25.1773 16.1927 25.4185C15.4278 25.6215 14.6269 25.6488 13.8499 25.4982C14.1822 26.5159 14.8188 27.4071 15.6739 28.0512C16.529 28.6954 17.5613 29.0615 18.6312 29.1C16.4684 30.7516 13.7469 31.4949 11.0449 31.1719Z" fill="white"/>
</svg>
