<svg width="48" height="48" viewBox="0 0 48 48" fill="none" xmlns="http://www.w3.org/2000/svg">
<path d="M23.6672 0H23.6512C10.589 0 0 10.589 0 23.6513V23.6672C0 36.7294 10.589 47.3184 23.6512 47.3184H23.6672C36.7294 47.3184 47.3184 36.7294 47.3184 23.6672V23.6513C47.3184 10.589 36.7294 0 23.6672 0Z" fill="#EC1E27"/>
<path d="M35.3651 17.7467C35.2236 17.2254 34.9519 16.7486 34.5755 16.3611C34.1992 15.9736 33.7305 15.6881 33.2136 15.5314C29.9774 15.1414 26.7191 14.9658 23.4598 15.0055C20.2005 14.9658 16.9422 15.1414 13.7061 15.5314C13.1803 15.6811 12.7018 15.9635 12.3166 16.3514C11.9315 16.7394 11.6525 17.2199 11.5067 17.7467C11.1172 19.7369 10.9145 21.7592 10.9011 23.7871C10.8881 25.8178 11.0641 27.8453 11.427 29.8433C11.5729 30.3702 11.8518 30.8507 12.2369 31.2386C12.6221 31.6266 13.1006 31.909 13.6264 32.0586C16.8625 32.4486 20.1208 32.6243 23.3801 32.5846C26.666 32.6278 29.9511 32.4521 33.2136 32.0586C33.7394 31.909 34.2178 31.6266 34.603 31.2386C34.9882 30.8507 35.2671 30.3702 35.4129 29.8433C35.7758 27.8453 35.9519 25.8178 35.9389 23.7871C35.936 21.7602 35.7439 19.738 35.3651 17.7467Z" fill="white"/>
<path d="M20.8613 27.4269V20L27.3798 23.7134L20.8613 27.4269Z" fill="#DC0000"/>
</svg>
