<svg xmlns="http://www.w3.org/2000/svg" width="24" height="24" viewBox="0 0 24 24">
  <g id="Group_3373" data-name="Group 3373" transform="translate(-85 -138)">
    <rect id="Rectangle_332" data-name="Rectangle 332" width="24" height="24" transform="translate(85 138)" fill="none"/>
    <g id="Page-1" transform="translate(85.355 137.999)">
      <g id="Manage-review" transform="translate(0.645 0.001)">
        <g id="_007-positive-review" data-name="007-positive-review" transform="translate(0)">
          <path id="Shape" d="M6.348,4.86a.563.563,0,0,0-.471-.385L4.342,4.3,3.7,2.893a.562.562,0,0,0-1.023,0L2.034,4.3.5,4.474a.563.563,0,0,0-.316.973L1.32,6.493,1.014,8.008a.563.563,0,0,0,.828.6l1.346-.76,1.346.76a.563.563,0,0,0,.828-.6L5.055,6.493,6.193,5.448a.562.562,0,0,0,.154-.588ZM21,4.86a.562.562,0,0,1-.154.588L19.71,6.493l.306,1.515a.562.562,0,0,1-.828.6l-1.346-.76-1.346.76a.562.562,0,0,1-.828-.6l.306-1.515L14.837,5.447a.563.563,0,0,1,.316-.973L16.688,4.3l.642-1.4a.562.562,0,0,1,1.023,0L19,4.3l1.535.177A.563.563,0,0,1,21,4.86ZM14.3,2.751a.566.566,0,0,0-.471-.387l-1.977-.226L11.027.327A.564.564,0,0,0,10,.327L9.176,2.138,7.2,2.364a.563.563,0,0,0-.316.974L8.349,4.684l-.395,1.95a.563.563,0,0,0,.828.6l1.733-.978,1.733.978a.563.563,0,0,0,.828-.6l-.395-1.95,1.466-1.346a.561.561,0,0,0,.155-.587Z" transform="translate(0)" fill="#e8e8e8"/>
        </g>
        <path id="Combined-Shape" d="M17.551,16.783H12.294a12.348,12.348,0,0,0,.7-3.331c.09-2.2-.951-3.076-1.84-3.42A.534.534,0,0,0,11.042,10a.884.884,0,0,0-1.1.581l-.021.048a.562.562,0,0,0-.046.166,9.063,9.063,0,0,1-2.3,5.045v10.5a3.7,3.7,0,0,0,.434.13.562.562,0,0,0,.122.015c.44,0,.965.007,1.57.007s1.287,0,2.045-.007h4.952a1.635,1.635,0,0,0,1.4-2.478,1.632,1.632,0,0,0,.377-2.2,1.633,1.633,0,0,0,.235-2.245,1.634,1.634,0,0,0-1.166-2.78ZM5.526,16.37a1.1,1.1,0,0,1,.931.515h0v9.1a1.1,1.1,0,0,1-.931.514H1.644a1.1,1.1,0,0,1-1.1-1.1h0V17.471a1.1,1.1,0,0,1,1.1-1.1H5.526Z" transform="translate(-0.136 -2.495)" fill="#a9a9a9" fill-rule="evenodd"/>
      </g>
    </g>
  </g>
</svg>
