<svg xmlns="http://www.w3.org/2000/svg" width="24" height="24" viewBox="0 0 24 24">
  <g id="Group_21805" data-name="Group 21805" transform="translate(-12755 -5318)">
    <g id="global-fill" transform="translate(12755 5318)">
      <path id="Path_32551" data-name="Path 32551" d="M0,0H24V24H0Z" fill="none"/>
      <path id="Path_32552" data-name="Path 32552" d="M2.05,13H7.527a17.9,17.9,0,0,0,2.925,8.88A10,10,0,0,1,2.05,13Zm0-2a10,10,0,0,1,8.4-8.88A17.9,17.9,0,0,0,7.527,11Zm19.9,0H16.473a17.9,17.9,0,0,0-2.925-8.88A10.005,10.005,0,0,1,21.95,11Zm0,2a10,10,0,0,1-8.4,8.88A17.9,17.9,0,0,0,16.473,13h5.478Z" fill="#a9a9a9"/>
    </g>
    <g id="global-fill-2" data-name="global-fill" transform="translate(12755 5318)">
      <path id="Path_32551-2" data-name="Path 32551" d="M0,0H24V24H0Z" fill="none"/>
      <path id="Path_32552-2" data-name="Path 32552" d="M9.53,13h4.94A15.908,15.908,0,0,1,12,20.592,15.908,15.908,0,0,1,9.53,13Zm0-2A15.908,15.908,0,0,1,12,3.408,15.908,15.908,0,0,1,14.47,11Z" fill="#e8e8e8"/>
    </g>
  </g>
</svg>
